<svg width="103" height="103" viewBox="0 0 103 103" fill="none" xmlns="http://www.w3.org/2000/svg">
<g filter="url(#filter0_d_379_2721)">
<path d="M78.45 39.9502C84.8289 39.9502 90 45.1213 90 51.5002C90 57.8791 84.8289 63.0502 78.45 63.0502L24.55 63.0502C18.1711 63.0502 13 57.8791 13 51.5002C13 45.1213 18.1711 39.9502 24.55 39.9502L78.45 39.9502Z" fill="#4338CA"/>
<path d="M39.9502 24.55C39.9502 18.1711 45.1213 13 51.5002 13C57.8791 13 63.0502 18.1711 63.0502 24.55V78.45C63.0502 84.8289 57.8791 90 51.5002 90C45.1213 90 39.9502 84.8289 39.9502 78.45V24.55Z" fill="#4338CA"/>
<path d="M39.9502 24.55C39.9502 18.1711 45.1213 13 51.5002 13C57.8791 13 63.0502 18.1711 63.0502 24.55V78.45C63.0502 84.8289 57.8791 90 51.5002 90C45.1213 90 39.9502 84.8289 39.9502 78.45V24.55Z" fill="white" fill-opacity="0.4" style="mix-blend-mode:screen"/>
<path d="M78.7255 62.3909C83.2362 66.9015 83.2362 74.2148 78.7255 78.7255C74.2148 83.2362 66.9015 83.2362 62.3908 78.7255L24.2766 40.6113C19.7659 36.1006 19.7659 28.7873 24.2766 24.2766C28.7873 19.7659 36.1006 19.7659 40.6113 24.2766L78.7255 62.3909Z" fill="#4338CA"/>
<path d="M78.7255 62.3909C83.2362 66.9015 83.2362 74.2148 78.7255 78.7255C74.2148 83.2362 66.9015 83.2362 62.3908 78.7255L24.2766 40.6113C19.7659 36.1006 19.7659 28.7873 24.2766 24.2766C28.7873 19.7659 36.1006 19.7659 40.6113 24.2766L78.7255 62.3909Z" fill="white" fill-opacity="0.2" style="mix-blend-mode:soft-light"/>
<path d="M62.3908 24.2766C66.9015 19.7659 74.2148 19.7659 78.7255 24.2766C83.2362 28.7873 83.2362 36.1006 78.7255 40.6113L40.6113 78.7255C36.1006 83.2362 28.7873 83.2362 24.2766 78.7255C19.7659 74.2148 19.7659 66.9015 24.2766 62.3908L62.3908 24.2766Z" fill="#4338CA"/>
<path d="M62.3908 24.2766C66.9015 19.7659 74.2148 19.7659 78.7255 24.2766C83.2362 28.7873 83.2362 36.1006 78.7255 40.6113L40.6113 78.7255C36.1006 83.2362 28.7873 83.2362 24.2766 78.7255C19.7659 74.2148 19.7659 66.9015 24.2766 62.3908L62.3908 24.2766Z" fill="white" fill-opacity="0.3" style="mix-blend-mode:overlay"/>
<path fill-rule="evenodd" clip-rule="evenodd" d="M51.4998 24.5498C50.6493 24.5498 49.9598 25.2393 49.9598 26.0898V46.2948C49.9598 46.7612 49.9598 46.9945 49.8676 47.1025C49.7875 47.1962 49.6675 47.2459 49.5446 47.2362C49.403 47.2251 49.2381 47.0602 48.9082 46.7303L34.6212 32.4433C34.0198 31.8419 33.0447 31.8419 32.4433 32.4433C31.8419 33.0447 31.8419 34.0198 32.4433 34.6212L46.7303 48.9082C47.0602 49.2381 47.2251 49.403 47.2363 49.5446C47.2459 49.6675 47.1962 49.7875 47.1025 49.8676C46.9945 49.9598 46.7612 49.9598 46.2948 49.9598H26.0898C25.2393 49.9598 24.5498 50.6493 24.5498 51.4998C24.5498 52.3503 25.2393 53.0398 26.0898 53.0398H46.2948C46.7613 53.0398 46.9945 53.0398 47.1025 53.132C47.1962 53.2121 47.2459 53.3321 47.2363 53.455C47.2251 53.5966 47.0602 53.7615 46.7304 54.0914L32.4433 68.3784C31.8419 68.9799 31.8419 69.9549 32.4433 70.5563C33.0447 71.1577 34.0198 71.1577 34.6212 70.5563L48.9082 56.2693C49.2381 55.9394 49.403 55.7745 49.5446 55.7634C49.6675 55.7537 49.7875 55.8034 49.8676 55.8971C49.9598 56.0051 49.9598 56.2384 49.9598 56.7049V76.9098C49.9598 77.7603 50.6493 78.4498 51.4998 78.4498C52.3503 78.4498 53.0398 77.7603 53.0398 76.9098V56.7048C53.0398 56.2384 53.0398 56.0051 53.132 55.8971C53.2121 55.8034 53.3322 55.7537 53.455 55.7633C53.5966 55.7745 53.7615 55.9394 54.0914 56.2693L68.3785 70.5563C68.9799 71.1577 69.9549 71.1577 70.5563 70.5563C71.1578 69.9549 71.1578 68.9799 70.5563 68.3785L56.2693 54.0914C55.9394 53.7615 55.7745 53.5966 55.7634 53.455C55.7537 53.3322 55.8034 53.2121 55.8971 53.132C56.0051 53.0398 56.2384 53.0398 56.7049 53.0398H76.9098C77.7603 53.0398 78.4498 52.3503 78.4498 51.4998C78.4498 50.6493 77.7603 49.9598 76.9098 49.9598H56.7049C56.2384 49.9598 56.0051 49.9598 55.8971 49.8676C55.8034 49.7875 55.7537 49.6675 55.7634 49.5446C55.7745 49.403 55.9394 49.2381 56.2693 48.9082L70.5563 34.6212C71.1577 34.0198 71.1577 33.0447 70.5563 32.4433C69.9549 31.8419 68.9799 31.8419 68.3785 32.4433L54.0914 46.7303C53.7615 47.0602 53.5966 47.2251 53.455 47.2363C53.3322 47.2459 53.2121 47.1962 53.132 47.1025C53.0398 46.9945 53.0398 46.7612 53.0398 46.2948V26.0898C53.0398 25.2393 52.3503 24.5498 51.4998 24.5498Z" fill="white"/>
</g>
<defs>
<filter id="filter0_d_379_2721" x="0.2" y="0.2" width="102.6" height="102.6" filterUnits="userSpaceOnUse" color-interpolation-filters="sRGB">
<feFlood flood-opacity="0" result="BackgroundImageFix"/>
<feColorMatrix in="SourceAlpha" type="matrix" values="0 0 0 0 0 0 0 0 0 0 0 0 0 0 0 0 0 0 127 0" result="hardAlpha"/>
<feOffset/>
<feGaussianBlur stdDeviation="6.4"/>
<feComposite in2="hardAlpha" operator="out"/>
<feColorMatrix type="matrix" values="0 0 0 0 0 0 0 0 0 0 0 0 0 0 0 0 0 0 0.25 0"/>
<feBlend mode="normal" in2="BackgroundImageFix" result="effect1_dropShadow_379_2721"/>
<feBlend mode="normal" in="SourceGraphic" in2="effect1_dropShadow_379_2721" result="shape"/>
</filter>
</defs>
</svg>
