<svg width="32" height="32" viewBox="0 0 32 32" fill="none" xmlns="http://www.w3.org/2000/svg">
<path d="M27.2 11.2002C29.851 11.2002 32 13.3492 32 16.0002C32 18.6512 29.851 20.8002 27.2 20.8002L4.8 20.8002C2.14903 20.8002 -1.15877e-07 18.6512 0 16.0002C1.15877e-07 13.3492 2.14903 11.2002 4.8 11.2002L27.2 11.2002Z" fill="#4338CA"/>
<path d="M11.2002 4.8C11.2002 2.14903 13.3492 0 16.0002 0C18.6512 0 20.8002 2.14903 20.8002 4.8V27.2C20.8002 29.851 18.6512 32 16.0002 32C13.3492 32 11.2002 29.851 11.2002 27.2V4.8Z" fill="#4338CA"/>
<path d="M11.2002 4.8C11.2002 2.14903 13.3492 0 16.0002 0C18.6512 0 20.8002 2.14903 20.8002 4.8V27.2C20.8002 29.851 18.6512 32 16.0002 32C13.3492 32 11.2002 29.851 11.2002 27.2V4.8Z" fill="white" fill-opacity="0.4" style="mix-blend-mode:screen"/>
<path d="M27.3143 20.5259C29.1889 22.4005 29.1889 25.4398 27.3143 27.3143C25.4398 29.1889 22.4005 29.1889 20.5259 27.3143L4.68621 11.4746C2.81163 9.60007 2.81163 6.56078 4.68621 4.68621C6.56078 2.81163 9.60007 2.81163 11.4746 4.68621L27.3143 20.5259Z" fill="#4338CA"/>
<path d="M27.3143 20.5259C29.1889 22.4005 29.1889 25.4398 27.3143 27.3143C25.4398 29.1889 22.4005 29.1889 20.5259 27.3143L4.68621 11.4746C2.81163 9.60007 2.81163 6.56078 4.68621 4.68621C6.56078 2.81163 9.60007 2.81163 11.4746 4.68621L27.3143 20.5259Z" fill="white" fill-opacity="0.2" style="mix-blend-mode:soft-light"/>
<path d="M20.5259 4.68621C22.4005 2.81163 25.4398 2.81163 27.3143 4.68621C29.1889 6.56078 29.1889 9.60007 27.3143 11.4746L11.4746 27.3143C9.60007 29.1889 6.56078 29.1889 4.68621 27.3143C2.81163 25.4398 2.81163 22.4005 4.68621 20.5259L20.5259 4.68621Z" fill="#4338CA"/>
<path d="M20.5259 4.68621C22.4005 2.81163 25.4398 2.81163 27.3143 4.68621C29.1889 6.56078 29.1889 9.60007 27.3143 11.4746L11.4746 27.3143C9.60007 29.1889 6.56078 29.1889 4.68621 27.3143C2.81163 25.4398 2.81163 22.4005 4.68621 20.5259L20.5259 4.68621Z" fill="white" fill-opacity="0.3" style="mix-blend-mode:overlay"/>
<path fill-rule="evenodd" clip-rule="evenodd" d="M15.9998 4.7998C15.6463 4.7998 15.3598 5.08634 15.3598 5.4398V13.8367C15.3598 14.0305 15.3598 14.1275 15.3215 14.1723C15.2882 14.2113 15.2383 14.232 15.1873 14.2279C15.1284 14.2233 15.0599 14.1548 14.9228 14.0177L8.98531 8.08021C8.73538 7.83028 8.33015 7.83028 8.08021 8.08021C7.83028 8.33015 7.83028 8.73537 8.08021 8.98531L14.0177 14.9228C14.1548 15.0599 14.2233 15.1284 14.2279 15.1873C14.232 15.2383 14.2113 15.2882 14.1723 15.3215C14.1275 15.3598 14.0305 15.3598 13.8367 15.3598H5.4398C5.08634 15.3598 4.7998 15.6463 4.7998 15.9998C4.7998 16.3533 5.08634 16.6398 5.4398 16.6398H13.8367C14.0305 16.6398 14.1275 16.6398 14.1724 16.6781C14.2113 16.7114 14.232 16.7613 14.2279 16.8124C14.2233 16.8712 14.1548 16.9397 14.0177 17.0768L8.08021 23.0143C7.83028 23.2642 7.83028 23.6695 8.08021 23.9194C8.33015 24.1693 8.73537 24.1693 8.98531 23.9194L14.9228 17.9819C15.0599 17.8448 15.1284 17.7763 15.1873 17.7717C15.2383 17.7677 15.2882 17.7883 15.3215 17.8273C15.3598 17.8722 15.3598 17.9691 15.3598 18.1629V26.5598C15.3598 26.9133 15.6463 27.1998 15.9998 27.1998C16.3533 27.1998 16.6398 26.9133 16.6398 26.5598V18.1629C16.6398 17.9691 16.6398 17.8721 16.6781 17.8273C16.7114 17.7883 16.7613 17.7676 16.8124 17.7717C16.8712 17.7763 16.9397 17.8448 17.0768 17.9819L23.0143 23.9194C23.2642 24.1693 23.6695 24.1693 23.9194 23.9194C24.1693 23.6695 24.1693 23.2642 23.9194 23.0143L17.9819 17.0768C17.8448 16.9397 17.7763 16.8712 17.7717 16.8124C17.7677 16.7613 17.7883 16.7114 17.8273 16.6781C17.8722 16.6398 17.9691 16.6398 18.1629 16.6398H26.5598C26.9133 16.6398 27.1998 16.3533 27.1998 15.9998C27.1998 15.6463 26.9133 15.3598 26.5598 15.3598H18.1629C17.9691 15.3598 17.8722 15.3598 17.8273 15.3215C17.7883 15.2882 17.7677 15.2383 17.7717 15.1873C17.7763 15.1284 17.8448 15.0599 17.9819 14.9228L23.9194 8.98531C24.1693 8.73537 24.1693 8.33015 23.9194 8.08021C23.6695 7.83027 23.2642 7.83027 23.0143 8.08021L17.0768 14.0177C16.9397 14.1548 16.8712 14.2233 16.8124 14.2279C16.7613 14.232 16.7114 14.2113 16.6781 14.1723C16.6398 14.1275 16.6398 14.0305 16.6398 13.8367V5.4398C16.6398 5.08634 16.3533 4.7998 15.9998 4.7998Z" fill="white"/>
</svg>
